<svg xmlns="http://www.w3.org/2000/svg" width="71" height="24" viewBox="0 0 71 24">
    <g fill="none" fill-rule="evenodd">
        <path fill="#E1BF36" d="M1.358 0h67.925c.77 0 1.359.589 1.359 1.358v21.284c0 .77-.59 1.358-1.359 1.358H1.358C.588 24 0 23.411 0 22.642V1.358C0 .588.589 0 1.358 0"/>
        <path fill="#211915" d="M38.762 12.906c.181 2.943 2.49 4.347 5.298 3.713.635-.136.906-.408 1.404-.544l-.498-1.267c-.724.226-1.63.815-2.944.407-.86-.317-1.449-1.041-1.494-2.173h5.117c0-2.355-.724-4.62-3.396-4.665-2.581-.045-3.623 2.174-3.487 4.529zM15.713 1.313c5.932 0 9.826 4.755 8.74 10.687-1.132 5.887-6.838 10.687-12.815 10.687-5.933 0-9.872-4.755-8.74-10.687C4.03 6.113 9.78 1.313 15.713 1.313zm2.853 1.404c3.668 1.268 5.796 4.981 4.981 9.283-.951 5.026-5.615 9.192-10.642 9.736-.407 0-.407-.227-.407-.589 0-.68.046-1.404.046-2.083 0-.09-.046-.136-.091-.136-.498-.045-1.041-.18-1.54-.317-.543-.226-1.086-.543-1.63-.86-.272-.181-.227-.77-.227-.996.046-.408.363-1.359.86-1.404.59-.045.861.272 1.45.543 1.041.498 2.445.77 3.532.272.498-.317.634-.724.407-1.268-.407-.86-2.4-1.585-3.305-1.992C9.827 12 8.649 10.143 9.01 7.925c.272-1.63 1.811-2.899 3.442-3.125v-.77c-1.993.589-3.487 1.72-4.846 3.034-1.947 1.902-3.124 4.347-3.214 7.427.135 3.803 2.128 5.434 4.165 6.701-3.532-1.358-5.524-4.98-4.754-9.192.996-5.162 5.841-9.419 11.049-9.781.226.136.226.136.317.407-.046.634-.09 1.314-.136 1.948 1.041.226 1.992.498 2.762 1.177.045 1.494-1.087 2.128-1.54 1.902 0-.09-1.675-.544-2.037-.634-.453-.09-.86-.045-1.268.136-.498.226-.725.588-.498 1.132.226.407.543.679.905.905 1.087.59 2.174 1.178 3.261 1.766.95.544 1.585 1.223 2.038 2.038.316.815.362 1.63.18 2.49-.226.68-.452 1.269-.86 1.676-.317.363-.679.68-1.087.86-.543.272-1.086.544-1.675.635 0 .362-.045.679-.045 1.041.045.045.09 0 .135 0 1.223-.407 2.31-1.087 3.352-1.856 1.358-1.178 2.626-2.446 3.305-4.076.453-.906.815-1.902.951-3.08.408-3.26-.815-6.339-4.347-7.969zm36.408 7.29v4.755c.045.453.09.725.18.906.635 1.404 2.853 1.268 4.167.453l-.589-1.178c-.408.182-.951.499-1.54.317-.543-.135-.497-.815-.497-1.403v-3.85h3.577l2.898 6.612c.045.272-.589 1.449-.724 1.63-.997 1.404-1.948.815-2.717.634l-.408 1.45c1.54.588 3.125.361 4.03-.59.815-.86 1.268-2.083 1.766-3.396l2.763-7.653h-1.858l-1.947 5.887c-.18-.226-1.72-3.985-1.992-4.619-.362-.86-.906-1.268-2.083-1.268h-3.305V6.34c-.408.09-1.495.407-1.767.543v1.766H53.48v1.404l1.495-.045zM34.777 8.559V6.792c0-.634.544-1.584 1.314-1.947.724-.317 2.082-.362 2.762.09l-.317 1.405c-1.992-.453-1.992-.09-1.992 2.218h2.173l-.544 1.404h-1.63v6.566c-.317.046-1.449.046-1.766 0V9.962h-.86l-.543-1.404h1.403zm11.82 4.212c.09 4.71 5.207 4.438 6.61 3.215-.044-.181-.407-1.087-.497-1.177-.952.407-1.857.815-2.99.271-1.765-.86-1.63-4.166.136-4.98.68-.318 1.676-.273 2.4 0l.634.316v-1.54c-1.041-.407-1.81-.679-3.124-.407-2.037.498-3.215 2.31-3.17 4.302zm-13.722 3.215l-.498-1.177c-.453.135-.77.362-1.358.452-1.585.272-2.989-.452-3.034-2.264h5.117c0-1.811-.317-3.849-2.31-4.483-.905-.317-2.037-.18-2.807.272-2.762 1.675-2.627 8.015 2.219 7.97.95-.046 2.128-.272 2.671-.77zm-4.935-4.257c.135-1.086.543-1.947 1.675-1.992 1.087 0 1.63.906 1.675 1.992h-3.35zm12.588 0c.091-1.086.589-1.992 1.676-1.992 1.086 0 1.63.95 1.63 1.992h-3.306z"/>
    </g>
</svg>