<svg xmlns="http://www.w3.org/2000/svg" xmlns:xlink="http://www.w3.org/1999/xlink" xmlns:serif="http://www.serif.com/" width="100%" height="100%" viewBox="0 0 505 62" version="1.1" xml:space="preserve" style="fill-rule:evenodd;clip-rule:evenodd;stroke-linejoin:round;stroke-miterlimit:2;">
    <g transform="matrix(1,0,0,1,-47.5647,-269.357)">
        <g id="Capa-1" serif:id="Capa 1">
            <g transform="matrix(1,0,0,1,194.29,305.524)">
                <path d="M0,-11.319L0,-23.493L-13.347,-23.493L-13.347,-36.167L-22.925,-34.098C-23.235,-32.347 -23.907,-30.664 -24.944,-29.049C-27.007,-25.838 -29.917,-23.82 -33.665,-23.004C-33.862,-22.961 -34.055,-22.939 -34.25,-22.904L-34.25,-11.319L-27.958,-11.319L-27.958,9.696C-27.958,14.688 -26.501,18.459 -23.584,21.015C-20.67,23.571 -16.354,24.848 -10.643,24.848C-9.26,24.848 -7.546,24.712 -5.502,24.442C-3.458,24.171 -1.773,23.826 -0.451,23.404L-0.451,11.591C-1.654,11.949 -2.766,12.206 -3.787,12.355C-4.812,12.506 -5.892,12.581 -7.036,12.581C-9.379,12.581 -11.019,12.145 -11.951,11.275C-12.883,10.404 -13.347,8.915 -13.347,6.811L-13.347,-11.319L0,-11.319Z" style="fill:rgb(0,54,156);fill-rule:nonzero;"/>
            </g>
            <g transform="matrix(1,0,0,1,94.6406,277.006)">
                <path d="M0,-7.649C0.103,-5.604 0.858,-3.836 2.327,-2.368C3.906,-0.789 5.817,0 8.065,0C10.308,0 12.222,-0.789 13.8,-2.368C15.267,-3.836 16.024,-5.604 16.127,-7.649L0,-7.649Z" style="fill:rgb(0,54,156);fill-rule:nonzero;"/>
            </g>
            <g transform="matrix(1,0,0,1,47.5647,287.533)">
                <path d="M0,36.886L6.943,27.055C9.95,28.86 12.686,30.166 15.152,30.978C17.615,31.79 20.051,32.196 22.456,32.196C24.861,32.196 26.771,31.851 28.183,31.159C29.596,30.468 30.304,29.55 30.304,28.409C30.304,27.507 29.911,26.771 29.131,26.198C28.348,25.628 27.116,25.221 25.434,24.98L15.964,23.539C11.274,22.817 7.665,21.238 5.141,18.804C2.614,16.368 1.353,13.198 1.353,9.289C1.353,4.478 3.185,0.69 6.853,-2.075C10.521,-4.841 15.542,-6.224 21.915,-6.224C25.343,-6.224 28.783,-5.728 32.242,-4.737C35.7,-3.745 38.901,-2.315 41.847,-0.451L34.903,8.928C32.316,7.426 29.853,6.327 27.507,5.635C25.163,4.944 22.817,4.599 20.473,4.599C18.608,4.599 17.105,4.915 15.964,5.544C14.82,6.176 14.25,7.004 14.25,8.026C14.25,8.989 14.669,9.754 15.513,10.324C16.354,10.897 17.796,11.333 19.842,11.633L29.311,13.076C34.001,13.74 37.622,15.285 40.18,17.721C42.733,20.155 44.012,23.239 44.012,26.965C44.012,29.25 43.471,31.384 42.388,33.369C41.305,35.352 39.819,37.066 37.924,38.51C36.031,39.952 33.76,41.079 31.116,41.892C28.468,42.704 25.614,43.11 22.546,43.11C18.037,43.11 13.844,42.582 9.966,41.531C6.088,40.479 2.766,38.932 0,36.886" style="fill:rgb(0,54,156);fill-rule:nonzero;"/>
            </g>
            <g transform="matrix(1,0,0,1,113.492,287.533)">
                <path d="M0,36.886L6.943,27.055C9.95,28.86 12.686,30.166 15.152,30.978C17.615,31.79 20.051,32.196 22.456,32.196C24.861,32.196 26.771,31.851 28.183,31.159C29.596,30.468 30.304,29.55 30.304,28.409C30.304,27.507 29.911,26.771 29.131,26.198C28.348,25.628 27.116,25.221 25.434,24.98L15.964,23.539C11.274,22.817 7.665,21.238 5.141,18.804C2.614,16.368 1.353,13.198 1.353,9.289C1.353,4.478 3.185,0.69 6.853,-2.075C10.521,-4.841 15.542,-6.224 21.915,-6.224C25.343,-6.224 28.783,-5.728 32.242,-4.737C35.7,-3.745 38.901,-2.315 41.847,-0.451L34.903,8.928C32.316,7.426 29.853,6.327 27.507,5.635C25.163,4.944 22.817,4.599 20.473,4.599C18.608,4.599 17.105,4.915 15.964,5.544C14.82,6.176 14.25,7.004 14.25,8.026C14.25,8.989 14.669,9.754 15.513,10.324C16.354,10.897 17.796,11.333 19.842,11.633L29.311,13.076C34.001,13.74 37.622,15.285 40.18,17.721C42.733,20.155 44.012,23.239 44.012,26.965C44.012,29.25 43.471,31.384 42.388,33.369C41.305,35.352 39.819,37.066 37.924,38.51C36.031,39.952 33.76,41.079 31.116,41.892C28.468,42.704 25.614,43.11 22.546,43.11C18.037,43.11 13.844,42.582 9.966,41.531C6.088,40.479 2.766,38.932 0,36.886" style="fill:rgb(0,54,156);fill-rule:nonzero;"/>
            </g>
            <g transform="matrix(1,0,0,1,221.448,318.739)">
                <path d="M0,-25.616C-2.407,-25.616 -4.48,-24.953 -6.224,-23.631C-7.97,-22.307 -9.201,-20.444 -9.921,-18.039L10.011,-18.039C9.228,-20.324 7.949,-22.158 6.176,-23.541C4.403,-24.923 2.344,-25.616 0,-25.616M21.283,4.688C18.276,7.214 15.195,9.048 12.039,10.19C8.883,11.331 5.319,11.904 1.351,11.904C-2.256,11.904 -5.653,11.272 -8.84,10.009C-12.028,8.746 -14.777,7.005 -17.092,4.778C-19.406,2.554 -21.24,-0.076 -22.594,-3.113C-23.947,-6.149 -24.622,-9.381 -24.622,-12.808C-24.622,-16.234 -23.976,-19.467 -22.684,-22.503C-21.391,-25.539 -19.632,-28.17 -17.408,-30.396C-15.184,-32.618 -12.553,-34.364 -9.517,-35.627C-6.481,-36.888 -3.219,-37.52 0.268,-37.52C3.756,-37.52 6.973,-36.859 9.921,-35.537C12.865,-34.213 15.407,-32.408 17.541,-30.125C19.675,-27.838 21.342,-25.088 22.546,-21.871C23.749,-18.655 24.351,-15.183 24.351,-11.454L24.351,-7.847L-9.65,-7.847C-8.689,-5.623 -7.187,-3.803 -5.141,-2.391C-3.099,-0.979 -0.693,-0.273 2.073,-0.273C4.058,-0.273 5.86,-0.588 7.485,-1.22C9.109,-1.849 10.492,-2.736 11.633,-3.88L21.283,4.688Z" style="fill:rgb(0,54,156);fill-rule:nonzero;"/>
            </g>
            <g transform="matrix(1,0,0,1,0,11.771)">
                <rect x="95.399" y="270.26" width="14.611" height="47.709" style="fill:rgb(0,54,156);"/>
            </g>
            <g transform="matrix(1,0,0,1,498.953,305.524)">
                <path d="M0,-11.319L0,-23.493L-13.347,-23.493L-13.347,-36.167L-22.925,-34.098C-23.235,-32.347 -23.907,-30.664 -24.944,-29.049C-27.007,-25.838 -29.917,-23.82 -33.665,-23.004C-33.862,-22.961 -34.055,-22.939 -34.25,-22.904L-34.25,-11.319L-27.958,-11.319L-27.958,9.696C-27.958,14.688 -26.501,18.459 -23.584,21.015C-20.67,23.571 -16.354,24.848 -10.643,24.848C-9.26,24.848 -7.546,24.712 -5.502,24.442C-3.458,24.171 -1.773,23.826 -0.451,23.404L-0.451,11.591C-1.653,11.949 -2.766,12.206 -3.787,12.355C-4.812,12.506 -5.892,12.581 -7.036,12.581C-9.379,12.581 -11.019,12.145 -11.951,11.275C-12.883,10.404 -13.347,8.915 -13.347,6.811L-13.347,-11.319L0,-11.319Z" style="fill:rgb(67,209,47);fill-rule:nonzero;"/>
            </g>
            <g transform="matrix(1,0,0,1,347.717,277.06)">
                <path d="M0,-7.648C0.103,-5.603 0.858,-3.835 2.327,-2.367C3.906,-0.788 5.817,0 8.065,0C10.308,0 12.222,-0.788 13.8,-2.367C15.267,-3.835 16.024,-5.603 16.127,-7.648L0,-7.648Z" style="fill:rgb(67,209,47);fill-rule:nonzero;"/>
            </g>
            <g transform="matrix(1,0,0,1,441.646,277.06)">
                <path d="M0,-7.648C0.103,-5.603 0.858,-3.835 2.327,-2.367C3.906,-0.788 5.817,0 8.065,0C10.308,0 12.222,-0.788 13.8,-2.367C15.267,-3.835 16.024,-5.603 16.127,-7.648L0,-7.648Z" style="fill:rgb(67,209,47);fill-rule:nonzero;"/>
            </g>
            <g transform="matrix(1,0,0,1,275.105,293.757)">
                <path d="M0,24.258C1.985,24.258 3.819,23.838 5.502,22.997C7.185,22.156 8.809,20.863 10.372,19.117L19.03,28.138C16.625,30.903 13.679,33.053 10.192,34.585C6.704,36.119 3.068,36.886 -0.722,36.886C-4.27,36.886 -7.591,36.254 -10.688,34.991C-13.785,33.728 -16.458,31.986 -18.714,29.76C-20.967,27.536 -22.743,24.921 -24.035,21.914C-25.328,18.907 -25.973,15.661 -25.973,12.174C-25.973,8.686 -25.328,5.425 -24.035,2.388C-22.743,-0.648 -20.967,-3.262 -18.714,-5.459C-16.458,-7.652 -13.785,-9.396 -10.688,-10.69C-7.591,-11.981 -4.27,-12.628 -0.722,-12.628C3.187,-12.628 6.914,-11.845 10.462,-10.284C14.011,-8.719 17.015,-6.556 19.481,-3.79L10.552,5.499C8.87,3.636 7.155,2.253 5.412,1.351C3.668,0.448 1.744,-0.003 -0.361,-0.003C-3.487,-0.003 -6.118,1.17 -8.252,3.516C-10.385,5.86 -11.452,8.747 -11.452,12.174C-11.452,15.6 -10.356,18.472 -8.161,20.786C-5.966,23.101 -3.246,24.258 0,24.258" style="fill:rgb(67,209,47);fill-rule:nonzero;"/>
            </g>
            <g transform="matrix(1,0,0,1,298.103,280.948)">
                <path d="M0,48.792L0,1.083L14.611,1.083L14.611,5.863C16.174,3.999 18.008,2.556 20.112,1.534C22.217,0.512 24.561,0 27.148,0C28.529,0.061 29.641,0.167 30.484,0.316C31.326,0.467 32.048,0.751 32.648,1.173L32.648,13.889C31.687,13.469 30.604,13.122 29.402,12.851C28.199,12.58 26.968,12.445 25.704,12.445C23.419,12.445 21.299,12.986 19.345,14.069C17.392,15.152 15.813,16.625 14.611,18.488L14.611,48.792L0,48.792Z" style="fill:rgb(67,209,47);fill-rule:nonzero;"/>
            </g>
            <g transform="matrix(1,0,0,1,355.916,318.739)">
                <path d="M0,-25.616C-2.407,-25.616 -4.48,-24.953 -6.224,-23.631C-7.97,-22.307 -9.201,-20.444 -9.921,-18.039L10.011,-18.039C9.228,-20.324 7.949,-22.158 6.176,-23.541C4.403,-24.923 2.344,-25.616 0,-25.616M21.283,4.688C18.276,7.214 15.195,9.048 12.039,10.19C8.883,11.331 5.319,11.904 1.351,11.904C-2.256,11.904 -5.653,11.272 -8.84,10.009C-12.028,8.746 -14.777,7.005 -17.092,4.778C-19.406,2.554 -21.24,-0.076 -22.594,-3.113C-23.947,-6.149 -24.622,-9.381 -24.622,-12.808C-24.622,-16.234 -23.976,-19.467 -22.684,-22.503C-21.391,-25.539 -19.632,-28.17 -17.408,-30.396C-15.184,-32.618 -12.553,-34.364 -9.517,-35.627C-6.481,-36.888 -3.219,-37.52 0.268,-37.52C3.756,-37.52 6.973,-36.859 9.921,-35.537C12.865,-34.213 15.407,-32.408 17.541,-30.125C19.675,-27.838 21.342,-25.088 22.546,-21.871C23.749,-18.655 24.351,-15.183 24.351,-11.454L24.351,-7.847L-9.65,-7.847C-8.689,-5.623 -7.187,-3.803 -5.141,-2.391C-3.099,-0.979 -0.693,-0.273 2.073,-0.273C4.058,-0.273 5.86,-0.588 7.485,-1.22C9.109,-1.849 10.492,-2.736 11.633,-3.88L21.283,4.688Z" style="fill:rgb(67,209,47);fill-rule:nonzero;"/>
            </g>
            <g transform="matrix(1,0,0,1,397.943,293.943)">
                <path d="M0,11.898C0,15.325 1.216,18.196 3.652,20.51C6.086,22.825 9.048,23.982 12.535,23.982C14.579,23.982 16.442,23.666 18.127,23.037C19.81,22.405 21.312,21.458 22.637,20.195L22.637,3.511C21.373,2.37 19.871,1.467 18.127,0.804C16.384,0.143 14.52,-0.188 12.535,-0.188C8.987,-0.188 6.012,0.971 3.607,3.286C1.202,5.6 0,8.472 0,11.898M22.817,35.798L22.817,32.281C20.954,33.603 18.939,34.625 16.774,35.347C14.611,36.068 12.355,36.429 10.011,36.429C6.643,36.429 3.472,35.798 0.496,34.535C-2.481,33.274 -5.066,31.53 -7.261,29.303C-9.456,27.082 -11.184,24.478 -12.447,21.503C-13.71,18.525 -14.34,15.325 -14.34,11.898C-14.34,8.472 -13.695,5.268 -12.402,2.293C-11.11,-0.685 -9.35,-3.267 -7.126,-5.465C-4.902,-7.657 -2.272,-9.387 0.765,-10.651C3.801,-11.912 7.033,-12.543 10.462,-12.543C12.684,-12.543 14.82,-12.272 16.864,-11.731C18.908,-11.192 20.832,-10.409 22.637,-9.387L22.637,-21.373L37.247,-24.531L37.247,35.798L22.817,35.798Z" style="fill:rgb(67,209,47);fill-rule:nonzero;"/>
            </g>
            <g transform="matrix(1,0,0,1,0,11.771)">
                <rect x="442.404" y="270.26" width="14.611" height="47.709" style="fill:rgb(67,209,47);"/>
            </g>
            <g transform="matrix(1,0,0,1,543.643,316.136)">
                <path d="M0,-20.5C-0.534,-20.734 -1.129,-20.747 -1.674,-20.533C-2.218,-20.321 -2.648,-19.909 -2.882,-19.372L-5.719,-12.893C-5.55,-12.036 -5.458,-11.143 -5.458,-10.205C-5.458,-6.837 -6.586,-3.981 -8.839,-1.637C-11.095,0.708 -13.844,1.879 -17.093,1.879C-20.339,1.879 -23.089,0.708 -25.345,-1.637C-27.6,-3.981 -28.726,-6.837 -28.726,-10.205C-28.726,-13.631 -27.6,-16.519 -25.345,-18.862C-23.089,-21.208 -20.339,-22.382 -17.093,-22.382C-13.844,-22.382 -11.095,-21.208 -8.839,-18.862C-8.153,-18.149 -7.584,-17.378 -7.106,-16.563L-5.395,-20.473C-4.866,-21.68 -3.9,-22.609 -2.673,-23.088C-1.445,-23.566 -0.107,-23.542 1.101,-23.012L6.354,-20.713C5.047,-23.401 3.361,-25.772 1.262,-27.793C-1.054,-30.015 -3.789,-31.774 -6.947,-33.069C-10.102,-34.36 -13.484,-35.007 -17.093,-35.007C-20.7,-35.007 -24.081,-34.36 -27.239,-33.069C-30.395,-31.774 -33.131,-30.015 -35.446,-27.793C-37.76,-25.567 -39.594,-22.936 -40.947,-19.9C-42.301,-16.864 -42.975,-13.631 -42.975,-10.205C-42.975,-6.778 -42.301,-3.546 -40.947,-0.51C-39.594,2.527 -37.76,5.157 -35.446,7.381C-33.131,9.607 -30.395,11.349 -27.239,12.612C-24.081,13.875 -20.7,14.507 -17.093,14.507C-13.484,14.507 -10.102,13.875 -6.947,12.612C-3.789,11.349 -1.054,9.607 1.262,7.381C3.575,5.157 5.411,2.527 6.762,-0.51C8.115,-3.546 8.792,-6.778 8.792,-10.205C8.792,-12.598 8.441,-14.891 7.781,-17.094L0,-20.5Z" style="fill:rgb(67,209,47);fill-rule:nonzero;"/>
            </g>
        </g>
    </g>
</svg>