<?xml version="1.0" encoding="UTF-8"?>
<svg xmlns="http://www.w3.org/2000/svg" xmlns:xlink="http://www.w3.org/1999/xlink" width="16px" height="16px" viewBox="0 0 16 16" version="1.1">
<g id="surface1">
<path style=" stroke:none;fill-rule:evenodd;fill:rgb(0%,0%,0%);fill-opacity:1;" d="M 0.179688 0.328125 C 0.128906 0.390625 0.0976562 0.476562 0.109375 0.527344 C 0.125 0.578125 0.117188 0.65625 0.09375 0.699219 C -0.0429688 0.953125 0.0429688 0.972656 1.5625 0.972656 L 2.980469 0.972656 L 2.964844 6.285156 L 2.949219 11.601562 L 8.40625 11.597656 C 11.773438 11.597656 13.894531 11.574219 13.945312 11.542969 C 14.027344 11.488281 14.117188 10.90625 14.058594 10.789062 C 14.039062 10.75 12.425781 10.734375 8.84375 10.734375 L 3.65625 10.734375 L 3.65625 5.539062 C 3.65625 1.570312 3.644531 0.328125 3.601562 0.28125 C 3.492188 0.148438 0.292969 0.191406 0.179688 0.328125 M 4.421875 1.578125 C 4.34375 1.644531 4.289062 9.082031 4.367188 9.226562 C 4.382812 9.257812 5.890625 9.277344 8.472656 9.277344 L 12.550781 9.277344 L 12.816406 8.644531 C 12.960938 8.296875 13.191406 7.753906 13.328125 7.445312 C 13.605469 6.804688 13.648438 6.695312 14.175781 5.421875 C 14.382812 4.917969 14.65625 4.261719 14.78125 3.964844 C 15.023438 3.410156 15.101562 3.226562 15.496094 2.277344 C 15.855469 1.410156 16.574219 1.511719 10.0625 1.511719 C 5.683594 1.511719 4.480469 1.523438 4.421875 1.578125 M 14.523438 2.636719 C 14.445312 2.839844 13.863281 4.222656 13.234375 5.707031 L 12.089844 8.410156 L 8.539062 8.414062 L 4.984375 8.414062 L 4.984375 2.265625 L 14.671875 2.265625 L 14.523438 2.636719 M 11.390625 12.054688 C 11.039062 12.171875 10.957031 12.238281 10.515625 12.734375 C 10.324219 12.945312 10.21875 13.335938 10.203125 13.863281 C 10.136719 16.019531 12.53125 16.703125 13.289062 14.742188 C 13.855469 13.285156 12.683594 11.625 11.390625 12.054688 M 4.824219 12.109375 C 4.695312 12.152344 4.582031 12.1875 4.5625 12.1875 C 4.546875 12.1875 4.390625 12.324219 4.214844 12.488281 C 3.148438 13.492188 3.550781 15.550781 4.886719 15.914062 C 5.816406 16.167969 6.765625 15.3125 6.847656 14.15625 C 6.9375 12.835938 5.863281 11.75 4.824219 12.109375 M 12.082031 12.785156 C 12.636719 12.96875 12.988281 13.84375 12.714844 14.363281 C 12.304688 15.140625 11.601562 15.257812 11.097656 14.632812 C 10.46875 13.851562 11.191406 12.496094 12.082031 12.785156 M 5.5 12.839844 C 6.074219 13.03125 6.40625 13.894531 6.109375 14.4375 C 5.777344 15.054688 5.347656 15.242188 4.867188 14.976562 C 3.796875 14.375 4.363281 12.46875 5.5 12.839844 "/>
</g>
</svg>
