<?xml version="1.0" encoding="UTF-8"?>
<svg xmlns="http://www.w3.org/2000/svg" xmlns:xlink="http://www.w3.org/1999/xlink" viewBox="0 0 65 65" version="1.1">
<g id="surface1">
<path style=" stroke:none;fill-rule:evenodd;fill:rgb(100%,100%,100%);fill-opacity:1;" d="M 0.730469 1.332031 C 0.523438 1.585938 0.398438 1.9375 0.445312 2.140625 C 0.507812 2.347656 0.476562 2.667969 0.382812 2.839844 C -0.175781 3.871094 0.175781 3.953125 6.347656 3.953125 L 12.109375 3.953125 L 12.042969 25.535156 L 11.980469 47.132812 L 34.148438 47.117188 C 47.828125 47.117188 56.445312 47.019531 56.652344 46.894531 C 56.984375 46.671875 57.351562 44.304688 57.113281 43.832031 C 57.035156 43.671875 50.480469 43.609375 35.929688 43.609375 L 14.851562 43.609375 L 14.851562 22.503906 C 14.851562 6.378906 14.804688 1.332031 14.632812 1.140625 C 14.1875 0.601562 1.191406 0.777344 0.730469 1.332031 M 17.964844 6.410156 C 17.648438 6.679688 17.425781 36.894531 17.742188 37.484375 C 17.804688 37.609375 23.929688 37.6875 34.421875 37.6875 L 50.988281 37.6875 L 52.066406 35.117188 C 52.652344 33.707031 53.589844 31.5 54.144531 30.246094 C 55.273438 27.644531 55.445312 27.199219 57.589844 22.027344 C 58.429688 19.980469 59.539062 17.3125 60.046875 16.105469 C 61.03125 13.855469 61.351562 13.109375 62.953125 9.25 C 64.414062 5.730469 67.332031 6.140625 40.878906 6.140625 C 23.089844 6.140625 18.203125 6.1875 17.964844 6.410156 M 59 10.710938 C 58.683594 11.535156 56.320312 17.15625 53.765625 23.183594 L 49.113281 34.167969 L 34.691406 34.183594 L 20.25 34.183594 L 20.25 9.203125 L 59.605469 9.203125 L 59 10.710938 M 46.273438 48.972656 C 44.847656 49.449219 44.511719 49.71875 42.71875 51.734375 C 41.941406 52.589844 41.511719 54.175781 41.449219 56.320312 C 41.179688 65.078125 50.90625 67.855469 53.988281 59.890625 C 56.289062 53.972656 51.527344 47.226562 46.273438 48.972656 M 19.597656 49.195312 C 19.074219 49.367188 18.613281 49.511719 18.535156 49.511719 C 18.472656 49.511719 17.835938 50.066406 17.121094 50.734375 C 12.789062 54.8125 14.425781 63.175781 19.851562 64.652344 C 23.628906 65.683594 27.484375 62.207031 27.820312 57.507812 C 28.183594 52.144531 23.820312 47.734375 19.597656 49.195312 M 49.082031 51.941406 C 51.335938 52.6875 52.765625 56.242188 51.652344 58.351562 C 49.988281 61.507812 47.132812 61.984375 45.085938 59.445312 C 42.53125 56.273438 45.464844 50.765625 49.082031 51.941406 M 22.34375 52.160156 C 24.675781 52.9375 26.027344 56.445312 24.820312 58.652344 C 23.46875 61.160156 21.726562 61.921875 19.773438 60.84375 C 15.425781 58.398438 17.726562 50.65625 22.34375 52.160156 "/>
</g>
</svg>
